<svg width="64" height="64" viewBox="0 0 64 64" xmlns="http://www.w3.org/2000/svg">
  <!-- Blue background circle -->
  <circle cx="32" cy="32" r="32" fill="#007bff"/>
  
  <!-- Clock background -->
  <circle cx="32" cy="32" r="22" fill="#0056b3" opacity="0.3"/>
  
  <!-- Chart bars (white) -->
  <rect x="12" y="28" width="4" height="16" fill="white" rx="1"/>
  <rect x="18" y="24" width="4" height="20" fill="white" rx="1"/>
  <rect x="24" y="20" width="4" height="24" fill="white" rx="1"/>
  <rect x="30" y="32" width="4" height="12" fill="white" rx="1"/>
  
  <!-- Clock face -->
  <circle cx="45" cy="20" r="10" fill="white" opacity="0.9"/>
  <circle cx="45" cy="20" r="8" fill="none" stroke="#007bff" stroke-width="1"/>
  
  <!-- Clock hands -->
  <line x1="45" y1="20" x2="45" y2="15" stroke="#007bff" stroke-width="2" stroke-linecap="round"/>
  <line x1="45" y1="20" x2="49" y2="20" stroke="#007bff" stroke-width="1.5" stroke-linecap="round"/>
  <circle cx="45" cy="20" r="1.5" fill="#007bff"/>
  
  <!-- Additional chart elements -->
  <rect x="38" y="36" width="4" height="8" fill="white" rx="1"/>
  <rect x="44" y="40" width="4" height="4" fill="white" rx="1"/>
  <rect x="50" y="38" width="4" height="6" fill="white" rx="1"/>
</svg>